<?xml version="1.0" encoding="UTF-8" standalone="no"?>
<!DOCTYPE svg PUBLIC "-//W3C//DTD SVG 1.1//EN"
 "http://www.w3.org/Graphics/SVG/1.1/DTD/svg11.dtd">
<!-- Generated by graphviz version 5.0.0 (20220707.1540)
 -->
<!-- Title: dependencies Pages: 1 -->
<svg width="2746pt" height="247pt"
 viewBox="0.00 0.00 2746.00 246.80" xmlns="http://www.w3.org/2000/svg" xmlns:xlink="http://www.w3.org/1999/xlink">
<g id="graph0" class="graph" transform="scale(1 1) rotate(0) translate(4 242.8)">
<title>dependencies</title>
<polygon fill="white" stroke="transparent" points="-4,4 -4,-242.8 2742,-242.8 2742,4 -4,4"/>
<text text-anchor="middle" x="1369" y="-8.2" font-family="sans-serif" font-size="14.00">dependencies</text>
<g id="clust1" class="cluster">
<title>cluster_AppModule</title>
<polygon fill="none" stroke="black" stroke-dasharray="1,5" points="8,-32.8 8,-230.8 2730,-230.8 2730,-32.8 8,-32.8"/>
</g>
<g id="clust20" class="cluster">
<title>cluster_AppModule_bootstrap</title>
<polygon fill="none" stroke="black" points="1283,-170.8 1283,-222.8 1407,-222.8 1407,-170.8 1283,-170.8"/>
</g>
<g id="clust21" class="cluster">
<title>cluster_AppModule_providers</title>
<polygon fill="none" stroke="black" points="2560,-40.8 2560,-92.8 2722,-92.8 2722,-40.8 2560,-40.8"/>
</g>
<g id="clust18" class="cluster">
<title>cluster_AppModule_imports</title>
<polygon fill="none" stroke="black" points="2408,-40.8 2408,-92.8 2552,-92.8 2552,-40.8 2408,-40.8"/>
</g>
<g id="clust2" class="cluster">
<title>cluster_AppModule_declarations</title>
<polygon fill="none" stroke="black" points="16,-40.8 16,-92.8 2400,-92.8 2400,-40.8 16,-40.8"/>
</g>
<!-- AddLivretComponent -->
<g id="node1" class="node">
<title>AddLivretComponent</title>
<polygon fill="#ffffb3" stroke="black" points="2391.65,-84.8 2252.35,-84.8 2252.35,-48.8 2391.65,-48.8 2391.65,-84.8"/>
<text text-anchor="middle" x="2322" y="-62.6" font-family="Times,serif" font-size="14.00">AddLivretComponent</text>
</g>
<!-- AppModule -->
<g id="node16" class="node">
<title>AppModule</title>
<polygon fill="#8dd3c7" stroke="black" points="1386.66,-149.8 1383.66,-153.8 1362.66,-153.8 1359.66,-149.8 1303.34,-149.8 1303.34,-113.8 1386.66,-113.8 1386.66,-149.8"/>
<text text-anchor="middle" x="1345" y="-127.6" font-family="Times,serif" font-size="14.00">AppModule</text>
</g>
<!-- AddLivretComponent&#45;&gt;AppModule -->
<g id="edge1" class="edge">
<title>AddLivretComponent&#45;&gt;AppModule</title>
<path fill="none" stroke="black" d="M2322,-85.08C2322,-106.12 2322,-137.8 2322,-137.8 2322,-137.8 1396.67,-137.8 1396.67,-137.8"/>
<polygon fill="black" stroke="black" points="1396.67,-134.3 1386.67,-137.8 1396.67,-141.3 1396.67,-134.3"/>
</g>
<!-- AddSectionComponent -->
<g id="node2" class="node">
<title>AddSectionComponent</title>
<polygon fill="#ffffb3" stroke="black" points="2233.94,-84.8 2086.06,-84.8 2086.06,-48.8 2233.94,-48.8 2233.94,-84.8"/>
<text text-anchor="middle" x="2160" y="-62.6" font-family="Times,serif" font-size="14.00">AddSectionComponent</text>
</g>
<!-- AddSectionComponent&#45;&gt;AppModule -->
<g id="edge2" class="edge">
<title>AddSectionComponent&#45;&gt;AppModule</title>
<path fill="none" stroke="black" d="M2160,-85.11C2160,-104.95 2160,-133.8 2160,-133.8 2160,-133.8 1396.82,-133.8 1396.82,-133.8"/>
<polygon fill="black" stroke="black" points="1396.82,-130.3 1386.82,-133.8 1396.82,-137.3 1396.82,-130.3"/>
</g>
<!-- AppComponent -->
<g id="node3" class="node">
<title>AppComponent</title>
<polygon fill="#ffffb3" stroke="black" points="2068.94,-84.8 1963.06,-84.8 1963.06,-48.8 2068.94,-48.8 2068.94,-84.8"/>
<text text-anchor="middle" x="2016" y="-62.6" font-family="Times,serif" font-size="14.00">AppComponent</text>
</g>
<!-- AppComponent&#45;&gt;AppModule -->
<g id="edge3" class="edge">
<title>AppComponent&#45;&gt;AppModule</title>
<path fill="none" stroke="black" d="M2016,-85.02C2016,-103.63 2016,-129.8 2016,-129.8 2016,-129.8 1396.72,-129.8 1396.72,-129.8"/>
<polygon fill="black" stroke="black" points="1396.72,-126.3 1386.72,-129.8 1396.72,-133.3 1396.72,-126.3"/>
</g>
<!-- DeleteConfirmationDialogComponent -->
<g id="node4" class="node">
<title>DeleteConfirmationDialogComponent</title>
<polygon fill="#ffffb3" stroke="black" points="1945.9,-84.8 1714.1,-84.8 1714.1,-48.8 1945.9,-48.8 1945.9,-84.8"/>
<text text-anchor="middle" x="1830" y="-62.6" font-family="Times,serif" font-size="14.00">DeleteConfirmationDialogComponent</text>
</g>
<!-- DeleteConfirmationDialogComponent&#45;&gt;AppModule -->
<g id="edge4" class="edge">
<title>DeleteConfirmationDialogComponent&#45;&gt;AppModule</title>
<path fill="none" stroke="black" d="M1830,-84.82C1830,-102.17 1830,-125.8 1830,-125.8 1830,-125.8 1396.77,-125.8 1396.77,-125.8"/>
<polygon fill="black" stroke="black" points="1396.77,-122.3 1386.77,-125.8 1396.77,-129.3 1396.77,-122.3"/>
</g>
<!-- LivretComponent -->
<g id="node5" class="node">
<title>LivretComponent</title>
<polygon fill="#ffffb3" stroke="black" points="1696.54,-84.8 1581.46,-84.8 1581.46,-48.8 1696.54,-48.8 1696.54,-84.8"/>
<text text-anchor="middle" x="1639" y="-62.6" font-family="Times,serif" font-size="14.00">LivretComponent</text>
</g>
<!-- LivretComponent&#45;&gt;AppModule -->
<g id="edge5" class="edge">
<title>LivretComponent&#45;&gt;AppModule</title>
<path fill="none" stroke="black" d="M1639,-84.81C1639,-100.85 1639,-121.8 1639,-121.8 1639,-121.8 1396.81,-121.8 1396.81,-121.8"/>
<polygon fill="black" stroke="black" points="1396.81,-118.3 1386.81,-121.8 1396.81,-125.3 1396.81,-118.3"/>
</g>
<!-- LivretsListComponent -->
<g id="node6" class="node">
<title>LivretsListComponent</title>
<polygon fill="#ffffb3" stroke="black" points="1563.27,-84.8 1420.73,-84.8 1420.73,-48.8 1563.27,-48.8 1563.27,-84.8"/>
<text text-anchor="middle" x="1492" y="-62.6" font-family="Times,serif" font-size="14.00">LivretsListComponent</text>
</g>
<!-- LivretsListComponent&#45;&gt;AppModule -->
<g id="edge6" class="edge">
<title>LivretsListComponent&#45;&gt;AppModule</title>
<path fill="none" stroke="black" d="M1492,-84.92C1492,-99.58 1492,-117.8 1492,-117.8 1492,-117.8 1396.73,-117.8 1396.73,-117.8"/>
<polygon fill="black" stroke="black" points="1396.73,-114.3 1386.73,-117.8 1396.73,-121.3 1396.73,-114.3"/>
</g>
<!-- LoginComponent -->
<g id="node7" class="node">
<title>LoginComponent</title>
<polygon fill="#ffffb3" stroke="black" points="1402.27,-84.8 1287.73,-84.8 1287.73,-48.8 1402.27,-48.8 1402.27,-84.8"/>
<text text-anchor="middle" x="1345" y="-62.6" font-family="Times,serif" font-size="14.00">LoginComponent</text>
</g>
<!-- LoginComponent&#45;&gt;AppModule -->
<g id="edge7" class="edge">
<title>LoginComponent&#45;&gt;AppModule</title>
<path fill="none" stroke="black" d="M1345,-84.91C1345,-84.91 1345,-103.79 1345,-103.79"/>
<polygon fill="black" stroke="black" points="1341.5,-103.79 1345,-113.79 1348.5,-103.79 1341.5,-103.79"/>
</g>
<!-- NavbarComponent -->
<g id="node8" class="node">
<title>NavbarComponent</title>
<polygon fill="#ffffb3" stroke="black" points="1269.03,-84.8 1146.97,-84.8 1146.97,-48.8 1269.03,-48.8 1269.03,-84.8"/>
<text text-anchor="middle" x="1208" y="-62.6" font-family="Times,serif" font-size="14.00">NavbarComponent</text>
</g>
<!-- NavbarComponent&#45;&gt;AppModule -->
<g id="edge8" class="edge">
<title>NavbarComponent&#45;&gt;AppModule</title>
<path fill="none" stroke="black" d="M1208,-84.92C1208,-99.58 1208,-117.8 1208,-117.8 1208,-117.8 1293.15,-117.8 1293.15,-117.8"/>
<polygon fill="black" stroke="black" points="1293.15,-121.3 1303.15,-117.8 1293.15,-114.3 1293.15,-121.3"/>
</g>
<!-- QuestionsComponent -->
<g id="node9" class="node">
<title>QuestionsComponent</title>
<polygon fill="#ffffb3" stroke="black" points="1128.83,-84.8 991.17,-84.8 991.17,-48.8 1128.83,-48.8 1128.83,-84.8"/>
<text text-anchor="middle" x="1060" y="-62.6" font-family="Times,serif" font-size="14.00">QuestionsComponent</text>
</g>
<!-- QuestionsComponent&#45;&gt;AppModule -->
<g id="edge9" class="edge">
<title>QuestionsComponent&#45;&gt;AppModule</title>
<path fill="none" stroke="black" d="M1060,-84.81C1060,-100.85 1060,-121.8 1060,-121.8 1060,-121.8 1293.25,-121.8 1293.25,-121.8"/>
<polygon fill="black" stroke="black" points="1293.25,-125.3 1303.25,-121.8 1293.25,-118.3 1293.25,-125.3"/>
</g>
<!-- SectionComponent -->
<g id="node10" class="node">
<title>SectionComponent</title>
<polygon fill="#ffffb3" stroke="black" points="973.82,-84.8 850.18,-84.8 850.18,-48.8 973.82,-48.8 973.82,-84.8"/>
<text text-anchor="middle" x="912" y="-62.6" font-family="Times,serif" font-size="14.00">SectionComponent</text>
</g>
<!-- SectionComponent&#45;&gt;AppModule -->
<g id="edge10" class="edge">
<title>SectionComponent&#45;&gt;AppModule</title>
<path fill="none" stroke="black" d="M912,-84.82C912,-102.17 912,-125.8 912,-125.8 912,-125.8 1293.09,-125.8 1293.09,-125.8"/>
<polygon fill="black" stroke="black" points="1293.09,-129.3 1303.09,-125.8 1293.09,-122.3 1293.09,-129.3"/>
</g>
<!-- SidebarComponent -->
<g id="node11" class="node">
<title>SidebarComponent</title>
<polygon fill="#ffffb3" stroke="black" points="832.1,-84.8 707.9,-84.8 707.9,-48.8 832.1,-48.8 832.1,-84.8"/>
<text text-anchor="middle" x="770" y="-62.6" font-family="Times,serif" font-size="14.00">SidebarComponent</text>
</g>
<!-- SidebarComponent&#45;&gt;AppModule -->
<g id="edge11" class="edge">
<title>SidebarComponent&#45;&gt;AppModule</title>
<path fill="none" stroke="black" d="M770,-85.02C770,-103.63 770,-129.8 770,-129.8 770,-129.8 1293.18,-129.8 1293.18,-129.8"/>
<polygon fill="black" stroke="black" points="1293.18,-133.3 1303.18,-129.8 1293.18,-126.3 1293.18,-133.3"/>
</g>
<!-- TakeSectionComponent -->
<g id="node12" class="node">
<title>TakeSectionComponent</title>
<polygon fill="#ffffb3" stroke="black" points="689.8,-84.8 538.2,-84.8 538.2,-48.8 689.8,-48.8 689.8,-84.8"/>
<text text-anchor="middle" x="614" y="-62.6" font-family="Times,serif" font-size="14.00">TakeSectionComponent</text>
</g>
<!-- TakeSectionComponent&#45;&gt;AppModule -->
<g id="edge12" class="edge">
<title>TakeSectionComponent&#45;&gt;AppModule</title>
<path fill="none" stroke="black" d="M614,-85.11C614,-104.95 614,-133.8 614,-133.8 614,-133.8 1293.07,-133.8 1293.07,-133.8"/>
<polygon fill="black" stroke="black" points="1293.07,-137.3 1303.07,-133.8 1293.07,-130.3 1293.07,-137.3"/>
</g>
<!-- UserLivretComponent -->
<g id="node13" class="node">
<title>UserLivretComponent</title>
<polygon fill="#ffffb3" stroke="black" points="519.97,-84.8 378.03,-84.8 378.03,-48.8 519.97,-48.8 519.97,-84.8"/>
<text text-anchor="middle" x="449" y="-62.6" font-family="Times,serif" font-size="14.00">UserLivretComponent</text>
</g>
<!-- UserLivretComponent&#45;&gt;AppModule -->
<g id="edge13" class="edge">
<title>UserLivretComponent&#45;&gt;AppModule</title>
<path fill="none" stroke="black" d="M449,-85.08C449,-106.12 449,-137.8 449,-137.8 449,-137.8 1293.28,-137.8 1293.28,-137.8"/>
<polygon fill="black" stroke="black" points="1293.28,-141.3 1303.28,-137.8 1293.28,-134.3 1293.28,-141.3"/>
</g>
<!-- UserViewLivretComponent -->
<g id="node14" class="node">
<title>UserViewLivretComponent</title>
<polygon fill="#ffffb3" stroke="black" points="360.3,-84.8 187.7,-84.8 187.7,-48.8 360.3,-48.8 360.3,-84.8"/>
<text text-anchor="middle" x="274" y="-62.6" font-family="Times,serif" font-size="14.00">UserViewLivretComponent</text>
</g>
<!-- UserViewLivretComponent&#45;&gt;AppModule -->
<g id="edge14" class="edge">
<title>UserViewLivretComponent&#45;&gt;AppModule</title>
<path fill="none" stroke="black" d="M274,-84.96C274,-107.15 274,-141.8 274,-141.8 274,-141.8 1293.02,-141.8 1293.02,-141.8"/>
<polygon fill="black" stroke="black" points="1293.02,-145.3 1303.02,-141.8 1293.02,-138.3 1293.02,-145.3"/>
</g>
<!-- ViewLivretComponent -->
<g id="node15" class="node">
<title>ViewLivretComponent</title>
<polygon fill="#ffffb3" stroke="black" points="169.86,-84.8 24.14,-84.8 24.14,-48.8 169.86,-48.8 169.86,-84.8"/>
<text text-anchor="middle" x="97" y="-62.6" font-family="Times,serif" font-size="14.00">ViewLivretComponent</text>
</g>
<!-- ViewLivretComponent&#45;&gt;AppModule -->
<g id="edge15" class="edge">
<title>ViewLivretComponent&#45;&gt;AppModule</title>
<path fill="none" stroke="black" d="M97,-85.12C97,-108.46 97,-145.8 97,-145.8 97,-145.8 1293.12,-145.8 1293.12,-145.8"/>
<polygon fill="black" stroke="black" points="1293.12,-149.3 1303.12,-145.8 1293.12,-142.3 1293.12,-149.3"/>
</g>
<!-- AppComponent  -->
<g id="node18" class="node">
<title>AppComponent </title>
<polygon fill="#80b1d3" stroke="black" points="1399.44,-214.8 1290.56,-214.8 1290.56,-178.8 1399.44,-178.8 1399.44,-214.8"/>
<text text-anchor="middle" x="1345" y="-192.6" font-family="Times,serif" font-size="14.00">AppComponent </text>
</g>
<!-- AppModule&#45;&gt;AppComponent  -->
<g id="edge17" class="edge">
<title>AppModule&#45;&gt;AppComponent </title>
<path fill="none" stroke="black" stroke-dasharray="1,5" d="M1345,-149.91C1345,-149.91 1345,-168.79 1345,-168.79"/>
<polygon fill="black" stroke="black" points="1341.5,-168.79 1345,-178.79 1348.5,-168.79 1341.5,-168.79"/>
</g>
<!-- AppRoutingModule -->
<g id="node17" class="node">
<title>AppRoutingModule</title>
<polygon fill="#8dd3c7" stroke="black" points="2544.28,-84.8 2541.28,-88.8 2520.28,-88.8 2517.28,-84.8 2415.72,-84.8 2415.72,-48.8 2544.28,-48.8 2544.28,-84.8"/>
<text text-anchor="middle" x="2480" y="-62.6" font-family="Times,serif" font-size="14.00">AppRoutingModule</text>
</g>
<!-- AppRoutingModule&#45;&gt;AppModule -->
<g id="edge16" class="edge">
<title>AppRoutingModule&#45;&gt;AppModule</title>
<path fill="none" stroke="black" d="M2480,-84.96C2480,-107.15 2480,-141.8 2480,-141.8 2480,-141.8 1396.74,-141.8 1396.74,-141.8"/>
<polygon fill="black" stroke="black" points="1396.74,-138.3 1386.74,-141.8 1396.74,-145.3 1396.74,-138.3"/>
</g>
<!-- AuthInterceptor -->
<g id="node19" class="node">
<title>AuthInterceptor</title>
<ellipse fill="#fdb462" stroke="black" cx="2641" cy="-66.8" rx="72.92" ry="18"/>
<text text-anchor="middle" x="2641" y="-62.6" font-family="Times,serif" font-size="14.00">AuthInterceptor</text>
</g>
<!-- AuthInterceptor&#45;&gt;AppModule -->
<g id="edge18" class="edge">
<title>AuthInterceptor&#45;&gt;AppModule</title>
<path fill="none" stroke="black" d="M2641,-85.12C2641,-108.46 2641,-145.8 2641,-145.8 2641,-145.8 1397.02,-145.8 1397.02,-145.8"/>
<polygon fill="black" stroke="black" points="1397.02,-142.3 1387.02,-145.8 1397.02,-149.3 1397.02,-142.3"/>
</g>
</g>
</svg>
