<?xml version="1.0" encoding="UTF-8" standalone="no"?>
<!DOCTYPE svg PUBLIC "-//W3C//DTD SVG 1.1//EN"
 "http://www.w3.org/Graphics/SVG/1.1/DTD/svg11.dtd">
<!-- Generated by graphviz version 5.0.0 (20220707.1540)
 -->
<!-- Title: dependencies Pages: 1 -->
<svg width="2746pt" height="247pt"
 viewBox="0.00 0.00 2746.00 246.80" xmlns="http://www.w3.org/2000/svg" xmlns:xlink="http://www.w3.org/1999/xlink">
<g id="graph0" class="graph" transform="scale(1 1) rotate(0) translate(4 242.8)">
<title>dependencies</title>
<polygon fill="white" stroke="transparent" points="-4,4 -4,-242.8 2742,-242.8 2742,4 -4,4"/>
<text text-anchor="middle" x="1369" y="-8.2" font-family="sans-serif" font-size="14.00">dependencies</text>
<g id="clust1" class="cluster">
<title>cluster_AppModule</title>
<polygon fill="none" stroke="black" stroke-dasharray="1,5" points="8,-32.8 8,-230.8 2730,-230.8 2730,-32.8 8,-32.8"/>
</g>
<g id="clust2" class="cluster">
<title>cluster_AppModule_declarations</title>
<polygon fill="none" stroke="black" points="338,-40.8 338,-92.8 2722,-92.8 2722,-40.8 338,-40.8"/>
</g>
<g id="clust18" class="cluster">
<title>cluster_AppModule_imports</title>
<polygon fill="none" stroke="black" points="186,-40.8 186,-92.8 330,-92.8 330,-40.8 186,-40.8"/>
</g>
<g id="clust20" class="cluster">
<title>cluster_AppModule_bootstrap</title>
<polygon fill="none" stroke="black" points="1320,-170.8 1320,-222.8 1444,-222.8 1444,-170.8 1320,-170.8"/>
</g>
<g id="clust21" class="cluster">
<title>cluster_AppModule_providers</title>
<polygon fill="none" stroke="black" points="16,-40.8 16,-92.8 178,-92.8 178,-40.8 16,-40.8"/>
</g>
<!-- AddLivretComponent -->
<g id="node1" class="node">
<title>AddLivretComponent</title>
<polygon fill="#ffffb3" stroke="black" points="2713.65,-84.8 2574.35,-84.8 2574.35,-48.8 2713.65,-48.8 2713.65,-84.8"/>
<text text-anchor="middle" x="2644" y="-62.6" font-family="Times,serif" font-size="14.00">AddLivretComponent</text>
</g>
<!-- AppModule -->
<g id="node16" class="node">
<title>AppModule</title>
<polygon fill="#8dd3c7" stroke="black" points="1423.66,-149.8 1420.66,-153.8 1399.66,-153.8 1396.66,-149.8 1340.34,-149.8 1340.34,-113.8 1423.66,-113.8 1423.66,-149.8"/>
<text text-anchor="middle" x="1382" y="-127.6" font-family="Times,serif" font-size="14.00">AppModule</text>
</g>
<!-- AddLivretComponent&#45;&gt;AppModule -->
<g id="edge1" class="edge">
<title>AddLivretComponent&#45;&gt;AppModule</title>
<path fill="none" stroke="black" d="M2644,-85.12C2644,-108.46 2644,-145.8 2644,-145.8 2644,-145.8 1433.99,-145.8 1433.99,-145.8"/>
<polygon fill="black" stroke="black" points="1433.99,-142.3 1423.99,-145.8 1433.99,-149.3 1433.99,-142.3"/>
</g>
<!-- AddSectionComponent -->
<g id="node2" class="node">
<title>AddSectionComponent</title>
<polygon fill="#ffffb3" stroke="black" points="2555.94,-84.8 2408.06,-84.8 2408.06,-48.8 2555.94,-48.8 2555.94,-84.8"/>
<text text-anchor="middle" x="2482" y="-62.6" font-family="Times,serif" font-size="14.00">AddSectionComponent</text>
</g>
<!-- AddSectionComponent&#45;&gt;AppModule -->
<g id="edge2" class="edge">
<title>AddSectionComponent&#45;&gt;AppModule</title>
<path fill="none" stroke="black" d="M2482,-84.96C2482,-107.15 2482,-141.8 2482,-141.8 2482,-141.8 1433.78,-141.8 1433.78,-141.8"/>
<polygon fill="black" stroke="black" points="1433.78,-138.3 1423.78,-141.8 1433.78,-145.3 1433.78,-138.3"/>
</g>
<!-- AppComponent -->
<g id="node3" class="node">
<title>AppComponent</title>
<polygon fill="#ffffb3" stroke="black" points="2390.94,-84.8 2285.06,-84.8 2285.06,-48.8 2390.94,-48.8 2390.94,-84.8"/>
<text text-anchor="middle" x="2338" y="-62.6" font-family="Times,serif" font-size="14.00">AppComponent</text>
</g>
<!-- AppComponent&#45;&gt;AppModule -->
<g id="edge3" class="edge">
<title>AppComponent&#45;&gt;AppModule</title>
<path fill="none" stroke="black" d="M2338,-85.08C2338,-106.12 2338,-137.8 2338,-137.8 2338,-137.8 1433.69,-137.8 1433.69,-137.8"/>
<polygon fill="black" stroke="black" points="1433.69,-134.3 1423.69,-137.8 1433.69,-141.3 1433.69,-134.3"/>
</g>
<!-- DeleteConfirmationDialogComponent -->
<g id="node4" class="node">
<title>DeleteConfirmationDialogComponent</title>
<polygon fill="#ffffb3" stroke="black" points="2267.9,-84.8 2036.1,-84.8 2036.1,-48.8 2267.9,-48.8 2267.9,-84.8"/>
<text text-anchor="middle" x="2152" y="-62.6" font-family="Times,serif" font-size="14.00">DeleteConfirmationDialogComponent</text>
</g>
<!-- DeleteConfirmationDialogComponent&#45;&gt;AppModule -->
<g id="edge4" class="edge">
<title>DeleteConfirmationDialogComponent&#45;&gt;AppModule</title>
<path fill="none" stroke="black" d="M2152,-85.11C2152,-104.95 2152,-133.8 2152,-133.8 2152,-133.8 1433.67,-133.8 1433.67,-133.8"/>
<polygon fill="black" stroke="black" points="1433.67,-130.3 1423.67,-133.8 1433.67,-137.3 1433.67,-130.3"/>
</g>
<!-- LivretComponent -->
<g id="node5" class="node">
<title>LivretComponent</title>
<polygon fill="#ffffb3" stroke="black" points="2018.54,-84.8 1903.46,-84.8 1903.46,-48.8 2018.54,-48.8 2018.54,-84.8"/>
<text text-anchor="middle" x="1961" y="-62.6" font-family="Times,serif" font-size="14.00">LivretComponent</text>
</g>
<!-- LivretComponent&#45;&gt;AppModule -->
<g id="edge5" class="edge">
<title>LivretComponent&#45;&gt;AppModule</title>
<path fill="none" stroke="black" d="M1961,-85.02C1961,-103.63 1961,-129.8 1961,-129.8 1961,-129.8 1434.11,-129.8 1434.11,-129.8"/>
<polygon fill="black" stroke="black" points="1434.11,-126.3 1424.11,-129.8 1434.11,-133.3 1434.11,-126.3"/>
</g>
<!-- LivretsListComponent -->
<g id="node6" class="node">
<title>LivretsListComponent</title>
<polygon fill="#ffffb3" stroke="black" points="1885.27,-84.8 1742.73,-84.8 1742.73,-48.8 1885.27,-48.8 1885.27,-84.8"/>
<text text-anchor="middle" x="1814" y="-62.6" font-family="Times,serif" font-size="14.00">LivretsListComponent</text>
</g>
<!-- LivretsListComponent&#45;&gt;AppModule -->
<g id="edge6" class="edge">
<title>LivretsListComponent&#45;&gt;AppModule</title>
<path fill="none" stroke="black" d="M1814,-84.82C1814,-102.17 1814,-125.8 1814,-125.8 1814,-125.8 1433.81,-125.8 1433.81,-125.8"/>
<polygon fill="black" stroke="black" points="1433.81,-122.3 1423.81,-125.8 1433.81,-129.3 1433.81,-122.3"/>
</g>
<!-- LoginComponent -->
<g id="node7" class="node">
<title>LoginComponent</title>
<polygon fill="#ffffb3" stroke="black" points="1724.27,-84.8 1609.73,-84.8 1609.73,-48.8 1724.27,-48.8 1724.27,-84.8"/>
<text text-anchor="middle" x="1667" y="-62.6" font-family="Times,serif" font-size="14.00">LoginComponent</text>
</g>
<!-- LoginComponent&#45;&gt;AppModule -->
<g id="edge7" class="edge">
<title>LoginComponent&#45;&gt;AppModule</title>
<path fill="none" stroke="black" d="M1667,-84.81C1667,-100.85 1667,-121.8 1667,-121.8 1667,-121.8 1433.75,-121.8 1433.75,-121.8"/>
<polygon fill="black" stroke="black" points="1433.75,-118.3 1423.75,-121.8 1433.75,-125.3 1433.75,-118.3"/>
</g>
<!-- NavbarComponent -->
<g id="node8" class="node">
<title>NavbarComponent</title>
<polygon fill="#ffffb3" stroke="black" points="1591.03,-84.8 1468.97,-84.8 1468.97,-48.8 1591.03,-48.8 1591.03,-84.8"/>
<text text-anchor="middle" x="1530" y="-62.6" font-family="Times,serif" font-size="14.00">NavbarComponent</text>
</g>
<!-- NavbarComponent&#45;&gt;AppModule -->
<g id="edge8" class="edge">
<title>NavbarComponent&#45;&gt;AppModule</title>
<path fill="none" stroke="black" d="M1530,-84.92C1530,-99.58 1530,-117.8 1530,-117.8 1530,-117.8 1434.01,-117.8 1434.01,-117.8"/>
<polygon fill="black" stroke="black" points="1434.02,-114.3 1424.01,-117.8 1434.01,-121.3 1434.02,-114.3"/>
</g>
<!-- QuestionsComponent -->
<g id="node9" class="node">
<title>QuestionsComponent</title>
<polygon fill="#ffffb3" stroke="black" points="1450.83,-84.8 1313.17,-84.8 1313.17,-48.8 1450.83,-48.8 1450.83,-84.8"/>
<text text-anchor="middle" x="1382" y="-62.6" font-family="Times,serif" font-size="14.00">QuestionsComponent</text>
</g>
<!-- QuestionsComponent&#45;&gt;AppModule -->
<g id="edge9" class="edge">
<title>QuestionsComponent&#45;&gt;AppModule</title>
<path fill="none" stroke="black" d="M1382,-84.91C1382,-84.91 1382,-103.79 1382,-103.79"/>
<polygon fill="black" stroke="black" points="1378.5,-103.79 1382,-113.79 1385.5,-103.79 1378.5,-103.79"/>
</g>
<!-- SectionComponent -->
<g id="node10" class="node">
<title>SectionComponent</title>
<polygon fill="#ffffb3" stroke="black" points="1295.82,-84.8 1172.18,-84.8 1172.18,-48.8 1295.82,-48.8 1295.82,-84.8"/>
<text text-anchor="middle" x="1234" y="-62.6" font-family="Times,serif" font-size="14.00">SectionComponent</text>
</g>
<!-- SectionComponent&#45;&gt;AppModule -->
<g id="edge10" class="edge">
<title>SectionComponent&#45;&gt;AppModule</title>
<path fill="none" stroke="black" d="M1234,-84.92C1234,-99.58 1234,-117.8 1234,-117.8 1234,-117.8 1329.99,-117.8 1329.99,-117.8"/>
<polygon fill="black" stroke="black" points="1329.99,-121.3 1339.99,-117.8 1329.98,-114.3 1329.99,-121.3"/>
</g>
<!-- SidebarComponent -->
<g id="node11" class="node">
<title>SidebarComponent</title>
<polygon fill="#ffffb3" stroke="black" points="1154.1,-84.8 1029.9,-84.8 1029.9,-48.8 1154.1,-48.8 1154.1,-84.8"/>
<text text-anchor="middle" x="1092" y="-62.6" font-family="Times,serif" font-size="14.00">SidebarComponent</text>
</g>
<!-- SidebarComponent&#45;&gt;AppModule -->
<g id="edge11" class="edge">
<title>SidebarComponent&#45;&gt;AppModule</title>
<path fill="none" stroke="black" d="M1092,-84.81C1092,-100.85 1092,-121.8 1092,-121.8 1092,-121.8 1330.14,-121.8 1330.14,-121.8"/>
<polygon fill="black" stroke="black" points="1330.14,-125.3 1340.14,-121.8 1330.14,-118.3 1330.14,-125.3"/>
</g>
<!-- TakeSectionComponent -->
<g id="node12" class="node">
<title>TakeSectionComponent</title>
<polygon fill="#ffffb3" stroke="black" points="1011.8,-84.8 860.2,-84.8 860.2,-48.8 1011.8,-48.8 1011.8,-84.8"/>
<text text-anchor="middle" x="936" y="-62.6" font-family="Times,serif" font-size="14.00">TakeSectionComponent</text>
</g>
<!-- TakeSectionComponent&#45;&gt;AppModule -->
<g id="edge12" class="edge">
<title>TakeSectionComponent&#45;&gt;AppModule</title>
<path fill="none" stroke="black" d="M936,-84.82C936,-102.17 936,-125.8 936,-125.8 936,-125.8 1330.04,-125.8 1330.04,-125.8"/>
<polygon fill="black" stroke="black" points="1330.04,-129.3 1340.04,-125.8 1330.04,-122.3 1330.04,-129.3"/>
</g>
<!-- UserLivretComponent -->
<g id="node13" class="node">
<title>UserLivretComponent</title>
<polygon fill="#ffffb3" stroke="black" points="841.97,-84.8 700.03,-84.8 700.03,-48.8 841.97,-48.8 841.97,-84.8"/>
<text text-anchor="middle" x="771" y="-62.6" font-family="Times,serif" font-size="14.00">UserLivretComponent</text>
</g>
<!-- UserLivretComponent&#45;&gt;AppModule -->
<g id="edge13" class="edge">
<title>UserLivretComponent&#45;&gt;AppModule</title>
<path fill="none" stroke="black" d="M771,-85.02C771,-103.63 771,-129.8 771,-129.8 771,-129.8 1330,-129.8 1330,-129.8"/>
<polygon fill="black" stroke="black" points="1330,-133.3 1340,-129.8 1330,-126.3 1330,-133.3"/>
</g>
<!-- UserViewLivretComponent -->
<g id="node14" class="node">
<title>UserViewLivretComponent</title>
<polygon fill="#ffffb3" stroke="black" points="682.3,-84.8 509.7,-84.8 509.7,-48.8 682.3,-48.8 682.3,-84.8"/>
<text text-anchor="middle" x="596" y="-62.6" font-family="Times,serif" font-size="14.00">UserViewLivretComponent</text>
</g>
<!-- UserViewLivretComponent&#45;&gt;AppModule -->
<g id="edge14" class="edge">
<title>UserViewLivretComponent&#45;&gt;AppModule</title>
<path fill="none" stroke="black" d="M596,-85.11C596,-104.95 596,-133.8 596,-133.8 596,-133.8 1330.3,-133.8 1330.3,-133.8"/>
<polygon fill="black" stroke="black" points="1330.3,-137.3 1340.3,-133.8 1330.3,-130.3 1330.3,-137.3"/>
</g>
<!-- ViewLivretComponent -->
<g id="node15" class="node">
<title>ViewLivretComponent</title>
<polygon fill="#ffffb3" stroke="black" points="491.86,-84.8 346.14,-84.8 346.14,-48.8 491.86,-48.8 491.86,-84.8"/>
<text text-anchor="middle" x="419" y="-62.6" font-family="Times,serif" font-size="14.00">ViewLivretComponent</text>
</g>
<!-- ViewLivretComponent&#45;&gt;AppModule -->
<g id="edge15" class="edge">
<title>ViewLivretComponent&#45;&gt;AppModule</title>
<path fill="none" stroke="black" d="M419,-85.08C419,-106.12 419,-137.8 419,-137.8 419,-137.8 1330.31,-137.8 1330.31,-137.8"/>
<polygon fill="black" stroke="black" points="1330.31,-141.3 1340.31,-137.8 1330.31,-134.3 1330.31,-141.3"/>
</g>
<!-- AppComponent  -->
<g id="node18" class="node">
<title>AppComponent </title>
<polygon fill="#80b1d3" stroke="black" points="1436.44,-214.8 1327.56,-214.8 1327.56,-178.8 1436.44,-178.8 1436.44,-214.8"/>
<text text-anchor="middle" x="1382" y="-192.6" font-family="Times,serif" font-size="14.00">AppComponent </text>
</g>
<!-- AppModule&#45;&gt;AppComponent  -->
<g id="edge17" class="edge">
<title>AppModule&#45;&gt;AppComponent </title>
<path fill="none" stroke="black" stroke-dasharray="1,5" d="M1382,-149.91C1382,-149.91 1382,-168.79 1382,-168.79"/>
<polygon fill="black" stroke="black" points="1378.5,-168.79 1382,-178.79 1385.5,-168.79 1378.5,-168.79"/>
</g>
<!-- AppRoutingModule -->
<g id="node17" class="node">
<title>AppRoutingModule</title>
<polygon fill="#8dd3c7" stroke="black" points="322.28,-84.8 319.28,-88.8 298.28,-88.8 295.28,-84.8 193.72,-84.8 193.72,-48.8 322.28,-48.8 322.28,-84.8"/>
<text text-anchor="middle" x="258" y="-62.6" font-family="Times,serif" font-size="14.00">AppRoutingModule</text>
</g>
<!-- AppRoutingModule&#45;&gt;AppModule -->
<g id="edge16" class="edge">
<title>AppRoutingModule&#45;&gt;AppModule</title>
<path fill="none" stroke="black" d="M258,-84.96C258,-107.15 258,-141.8 258,-141.8 258,-141.8 1330.33,-141.8 1330.33,-141.8"/>
<polygon fill="black" stroke="black" points="1330.33,-145.3 1340.33,-141.8 1330.33,-138.3 1330.33,-145.3"/>
</g>
<!-- AuthInterceptor -->
<g id="node19" class="node">
<title>AuthInterceptor</title>
<ellipse fill="#fdb462" stroke="black" cx="97" cy="-66.8" rx="72.92" ry="18"/>
<text text-anchor="middle" x="97" y="-62.6" font-family="Times,serif" font-size="14.00">AuthInterceptor</text>
</g>
<!-- AuthInterceptor&#45;&gt;AppModule -->
<g id="edge18" class="edge">
<title>AuthInterceptor&#45;&gt;AppModule</title>
<path fill="none" stroke="black" d="M97,-85.12C97,-108.46 97,-145.8 97,-145.8 97,-145.8 1329.98,-145.8 1329.98,-145.8"/>
<polygon fill="black" stroke="black" points="1329.98,-149.3 1339.98,-145.8 1329.98,-142.3 1329.98,-149.3"/>
</g>
</g>
</svg>
